<svg width="36" height="36" viewBox="0 0 36 36" fill="none" xmlns="http://www.w3.org/2000/svg">
<path d="M35.1189 14.9122L35.1095 14.8747L29.8502 1.5106C29.6158 0.755908 28.9173 0.235596 28.1252 0.235596H6.80641C6.00953 0.235596 5.30172 0.765283 5.07672 1.52935L0.159531 14.7575L0.145469 14.7903L0.136094 14.8278C0.0751561 15.0575 0.0564061 15.2918 0.0892186 15.5215C0.0845311 15.5965 0.0798438 15.6715 0.0798438 15.7465V32.8981C0.0810833 33.6536 0.381748 34.3778 0.915958 34.912C1.45017 35.4462 2.17436 35.7469 2.92984 35.7481H32.3298C33.9002 35.7481 35.1798 34.4684 35.1845 32.8981V15.7465C35.1845 15.6856 35.1845 15.6247 35.1798 15.5731C35.1986 15.3434 35.1798 15.1231 35.1189 14.9122ZM21.2533 12.8965L21.2392 13.6325C21.2017 15.7372 19.7486 17.1528 17.6252 17.1528C16.5892 17.1528 15.6986 16.82 15.0564 16.1872C14.4142 15.5543 14.0627 14.6731 14.0439 13.6325L14.0298 12.8965H4.38297L8.10953 3.8356H26.822L30.6517 12.8965H21.2533ZM3.67516 16.4965H11.0486C12.1877 19.1731 14.6111 20.7528 17.6298 20.7528C19.2095 20.7528 20.6767 20.3122 21.8627 19.4778C22.9033 18.7465 23.7142 17.7247 24.2392 16.4965H31.5752V32.1481H3.67516V16.4965Z" fill="#0F62FE"/>
</svg>
