<svg width="12" height="13" viewBox="0 0 12 13" fill="none" xmlns="http://www.w3.org/2000/svg">
<path d="M10.1761 1.46255C8.70421 -0.00932625 6.30734 -0.00932625 4.83703 1.46255L0.758901 5.53755C0.732339 5.56411 0.718276 5.60005 0.718276 5.63755C0.718276 5.67505 0.732339 5.71099 0.758901 5.73755L1.33546 6.31411C1.36182 6.34035 1.39749 6.35508 1.43468 6.35508C1.47187 6.35508 1.50755 6.34035 1.5339 6.31411L5.61203 2.23911C6.11828 1.73286 6.79171 1.45474 7.50734 1.45474C8.22296 1.45474 8.8964 1.73286 9.40109 2.23911C9.90734 2.74536 10.1855 3.4188 10.1855 4.13286C10.1855 4.84849 9.90734 5.52036 9.40109 6.02661L5.24484 10.1813L4.5714 10.8547C3.94171 11.4844 2.91828 11.4844 2.28859 10.8547C1.9839 10.55 1.81671 10.1454 1.81671 9.71411C1.81671 9.28286 1.9839 8.87817 2.28859 8.57349L6.41203 4.45161C6.51671 4.34849 6.65421 4.29067 6.80109 4.29067H6.80265C6.94953 4.29067 7.08546 4.34849 7.18859 4.45161C7.29328 4.5563 7.34953 4.6938 7.34953 4.84067C7.34953 4.98599 7.29171 5.12349 7.18859 5.22661L3.81828 8.5938C3.79171 8.62036 3.77765 8.6563 3.77765 8.6938C3.77765 8.7313 3.79171 8.76724 3.81828 8.7938L4.39484 9.37036C4.42119 9.3966 4.45687 9.41133 4.49406 9.41133C4.53125 9.41133 4.56692 9.3966 4.59328 9.37036L7.96203 6.00161C8.27296 5.69067 8.44328 5.27817 8.44328 4.83911C8.44328 4.40005 8.2714 3.98599 7.96203 3.67661C7.31984 3.03442 6.27609 3.03599 5.6339 3.67661L5.2339 4.07817L1.51203 7.79849C1.25942 8.04961 1.05918 8.34839 0.922925 8.6775C0.78667 9.0066 0.717109 9.35948 0.718276 9.71567C0.718276 10.4391 1.00109 11.1188 1.51203 11.6297C2.04171 12.1579 2.73546 12.4219 3.42921 12.4219C4.12296 12.4219 4.81671 12.1579 5.34484 11.6297L10.1761 6.80161C10.887 6.08911 11.2808 5.14067 11.2808 4.13286C11.2823 3.12349 10.8886 2.17505 10.1761 1.46255Z" fill="black" fill-opacity="0.45"/>
</svg>
