<svg width="12" height="13" viewBox="0 0 12 13" fill="none" xmlns="http://www.w3.org/2000/svg">
<path d="M3.625 1.26147H3.5C3.56875 1.26147 3.625 1.20522 3.625 1.13647V1.26147H8.375V1.13647C8.375 1.20522 8.43125 1.26147 8.5 1.26147H8.375V2.38647H9.5V1.13647C9.5 0.584912 9.05156 0.136475 8.5 0.136475H3.5C2.94844 0.136475 2.5 0.584912 2.5 1.13647V2.38647H3.625V1.26147ZM11.5 2.38647H0.5C0.223438 2.38647 0 2.60991 0 2.88647V3.38648C0 3.45522 0.05625 3.51148 0.125 3.51148H1.06875L1.45469 11.6834C1.47969 12.2162 1.92031 12.6365 2.45313 12.6365H9.54688C10.0813 12.6365 10.5203 12.2177 10.5453 11.6834L10.9313 3.51148H11.875C11.9438 3.51148 12 3.45522 12 3.38648V2.88647C12 2.60991 11.7766 2.38647 11.5 2.38647ZM9.42656 11.5115H2.57344L2.19531 3.51148H9.80469L9.42656 11.5115Z" fill="black" fill-opacity="0.45"/>
</svg>
